{"title":"Vampire Knight The Complete Series (2008) DVD RIP UNCUT","uid":11174105,"size":4740400731,"categoryP":"video","categoryS":"tv_shows","magnet":"?xt=urn:btih:17492280f0134c62db9b1d2e309fafba5ca50d50&amp;dn=Vampire+Knight+The+Complete+Series+%282008%29+DVD+RIP+UNCUT&amp;tr=udp%3A%2F%2Ftracker.openbittorrent.com%3A80&amp;tr=udp%3A%2F%2Fopen.demonii.com%3A1337&amp;tr=udp%3A%2F%2Ftracker.coppersurfer.tk%3A6969&amp;tr=udp%3A%2F%2Fexodus.desync.com%3A6969","seeders":6,"leechers":3,"uploader":"jmanwf","files":-1,"time":1412748635,"description":"All 26 Episodes of Seasons 1 AND 2 ( UNCUT )\n\n\n\nALL In MP4 Format:\n\n\nStoryline\n\nVampire Knight tells the story of Yuki Cross. The earliest thing she remembers is being attacked on a snowy night by a vampire, and being rescued by Kaname Kuran, who is also a vampire. The story takes place 10 years after that event, Yuki is now the adopted daughter of the Headmaster of Cross Academy. She and her longtime friend Zero Kiryu keep peace at the academy, making sure no problems arise between the Day Class (humans) and the Night Class (vampires). However, the peace they try to keep is fragile, and personal feelings begin to interrupt their duty. It's based on the manga by Matsuri Hino, which is excellent. If VK is half as good as the manga, it'll be a great anime. (as I write this it has yet to air) There is some action, but expect more romance from VK.\n\n\n\nALL Have English And Japanese Audio Streams\n\n\n\nSubtitles: English\n\n\nFormat : MPEG-4\nFormat profile : Base Media / Version 2\nCodec ID : mp42\nFile size : 208 MiB\nDuration : 23mn 59s\nOverall bit rate mode : Variable\nOverall bit rate : 1 213 Kbps\nEncoded date : UTC 2014-10-04 06:53:13\nTagged date : UTC 2014-10-04 07:02:42\nWriting application : HandBrake 0.9.9 2013052900\n\nVideo\nID : 1\nFormat : AVC\nFormat/Info : Advanced Video Codec\nFormat profile : &lt;a class=&quot;__cf_email__&quot; href=&quot;/cdn-cgi/l/email-protection&quot; data-cfemail=&quot;672f0e000f272b534956&quot;&gt;[email&amp;#160;protected]&lt;/a&gt;&lt;script cf-hash='f9e31' type=&quot;text/javascript&quot;&gt;\n/* &lt;![CDATA[ */!function(){try{var t=&quot;currentScript&quot;in document?document.currentScript:function(){for(var t=document.getElementsByTagName(&quot;script&quot;),e=t.length;e--;)if(t[e].getAttribute(&quot;cf-hash&quot;))return t[e]}();if(t&amp;&amp;t.previousSibling){var e,r,n,i,c=t.previousSibling,a=c.getAttribute(&quot;data-cfemail&quot;);if(a){for(e=&quot;&quot;,r=parseInt(a.substr(0,2),16),n=2;a.length-n;n+=2)i=parseInt(a.substr(n,2),16)^r,e+=String.fromCharCode(i);e=document.createTextNode(e),c.parentNode.replaceChild(e,c)}}}catch(u){}}();/* ]]&gt; */&lt;/script&gt;\nFormat settings, CABAC : Yes\nFormat settings, ReFrames : 4 frames\nCodec ID : avc1\nCodec ID/Info : Advanced Video Coding\nDuration : 23mn 59s\nBit rate : 755 Kbps\nWidth : 718 pixels\nHeight : 574 pixels\nDisplay aspect ratio : 16:9\nFrame rate mode : Constant\nFrame rate : 25.000 fps\nColor space : YUV\nChroma subsampling : 4:2:0\nBit depth : 8 bits\nScan type : Progressive\nBits/(Pixel*Frame) : 0.073\nStream size : 130 MiB (62%)\nWriting library : x264 core 130 r2273 b3065e6\n\nEncoded date : UTC 2014-10-04 06:53:13\nTagged date : UTC 2014-10-04 07:02:42\nColor primaries : BT.601 PAL\nTransfer characteristics : BT.709\nMatrix coefficients : BT.601\n\nAudio #1\nID : 2\nFormat : AC-3\nFormat/Info : Audio Coding 3\nMode extension : CM (complete main)\nFormat settings, Endianness : Big\nCodec ID : ac-3\nDuration : 23mn 59s\nBit rate mode : Constant\nBit rate : 224 Kbps\nChannel(s) : 2 channels\nChannel positions : Front: L R\nSampling rate : 48.0 KHz\nBit depth : 16 bits\nCompression mode : Lossy\nStream size : 38.4 MiB (18%)\nLanguage : English\nEncoded date : UTC 2014-10-04 06:53:13\nTagged date : UTC 2014-10-04 07:02:41\n\nAudio #2\nID : 3\nFormat : AC-3\nFormat/Info : Audio Coding 3\nMode extension : CM (complete main)\nFormat settings, Endianness : Big\nCodec ID : ac-3\nDuration : 23mn 59s\nBit rate mode : Constant\nBit rate : 224 Kbps\nChannel(s) : 2 channels\nChannel positions : Front: L R\nSampling rate : 48.0 KHz\nBit depth : 16 bits\nCompression mode : Lossy\nStream size : 38.4 MiB (18%)\nLanguage : Japanese\nEncoded date : UTC 2014-10-04 06:53:13\nTagged date : UTC 2014-10-04 07:02:41\n\nText\nID : 4\nFormat : mp4s\nCodec ID : E0\nDuration : 23mn 56s\nBit rate mode : Variable\nBit rate : 6 970 bps\nMaximum bit rate : 4 211 Mbps\nStream size : 1.19 MiB (1%)\nLanguage : English\nEncoded date : UTC 2014-10-04 06:53:13\nTagged date : UTC 2014-10-04 07:02:41 ","torrent":{"xt":"urn:btih:17492280f0134c62db9b1d2e309fafba5ca50d50","amp;dn":"Vampire+Knight+The+Complete+Series+%282008%29+DVD+RIP+UNCUT","amp;tr":["udp%3A%2F%2Ftracker.openbittorrent.com%3A80","udp%3A%2F%2Fopen.demonii.com%3A1337","udp%3A%2F%2Ftracker.coppersurfer.tk%3A6969","udp%3A%2F%2Fexodus.desync.com%3A6969"],"infoHash":"17492280f0134c62db9b1d2e309fafba5ca50d50","infoHashBuffer":{"type":"Buffer","data":[23,73,34,128,240,19,76,98,219,155,29,46,48,159,175,186,92,165,13,80]},"announce":[],"urlList":[]}}